<svg xmlns="http://www.w3.org/2000/svg" viewBox="0 0 512 512">
  <rect width="512" height="512" rx="96" fill="#0e1116"/>
  <rect x="72" y="300" width="88" height="150" rx="6" fill="#4f9dde"/>
  <rect x="176" y="220" width="104" height="230" rx="6" fill="#7bc47f"/>
  <rect x="296" y="160" width="80" height="290" rx="6" fill="#e0b04f"/>
  <rect x="392" y="270" width="72" height="180" rx="6" fill="#d98b6a"/>
  <g fill="#0e1116" opacity="0.55">
    <rect x="92" y="322" width="20" height="20"/><rect x="120" y="322" width="20" height="20"/>
    <rect x="92" y="356" width="20" height="20"/><rect x="120" y="356" width="20" height="20"/>
    <rect x="196" y="244" width="22" height="22"/><rect x="238" y="244" width="22" height="22"/>
    <rect x="196" y="286" width="22" height="22"/><rect x="238" y="286" width="22" height="22"/>
    <rect x="196" y="328" width="22" height="22"/><rect x="238" y="328" width="22" height="22"/>
    <rect x="314" y="186" width="18" height="18"/><rect x="342" y="186" width="18" height="18"/>
    <rect x="314" y="222" width="18" height="18"/><rect x="342" y="222" width="18" height="18"/>
  </g>
  <rect x="40" y="450" width="432" height="22" rx="6" fill="#3a3f4b"/>
</svg>
